<svg id="moon-fog" enable-background="new 0 0 300 300" height="512" viewBox="0 0 300 300" width="512" xmlns="http://www.w3.org/2000/svg"><g><circle cx="174" cy="178.216" fill="#efefd2" r="92"/><path d="m238 62.216c-1.023 0-2.047-.391-2.828-1.172l-16-16c-1.562-1.562-1.562-4.094 0-5.656s4.094-1.562 5.656 0l16 16c1.562 1.562 1.562 4.094 0 5.656-.781.781-1.805 1.172-2.828 1.172z" fill="#4c241d"/><path d="m222 62.216c-1.023 0-2.047-.391-2.828-1.172-1.562-1.562-1.562-4.094 0-5.656l16-16c1.562-1.562 4.094-1.562 5.656 0s1.562 4.094 0 5.656l-16 16c-.781.781-1.805 1.172-2.828 1.172z" fill="#4c241d"/><path d="m66 258.216c-1.023 0-2.047-.391-2.828-1.172l-16-16c-1.562-1.562-1.562-4.094 0-5.656s4.094-1.562 5.656 0l16 16c1.562 1.562 1.562 4.094 0 5.656-.781.781-1.805 1.172-2.828 1.172z" fill="#4c241d"/><path d="m50 258.216c-1.023 0-2.047-.391-2.828-1.172-1.562-1.562-1.562-4.094 0-5.656l16-16c1.562-1.562 4.094-1.562 5.656 0s1.562 4.094 0 5.656l-16 16c-.781.781-1.805 1.172-2.828 1.172z" fill="#4c241d"/><path d="m182 78.216c-1.023 0-2.047-.391-2.828-1.172l-16-16c-1.562-1.562-1.562-4.094 0-5.656s4.094-1.562 5.656 0l16 16c1.562 1.562 1.562 4.094 0 5.656-.781.781-1.805 1.172-2.828 1.172z" fill="#4c241d"/><path d="m166 78.216c-1.023 0-2.047-.391-2.828-1.172-1.562-1.562-1.562-4.094 0-5.656l16-16c1.562-1.562 4.094-1.562 5.656 0s1.562 4.094 0 5.656l-16 16c-.781.781-1.805 1.172-2.828 1.172z" fill="#4c241d"/><g><path d="m123.708 164.387c-25.693-42.847-18.201-96.332 14.965-130.604-8.891 2.542-17.602 6.256-25.91 11.238-51.155 30.674-67.757 97.01-37.083 148.165s97.01 67.757 148.165 37.083c8.307-4.981 15.687-10.916 22.118-17.561-45.853 13.112-96.562-5.474-122.255-48.321z" fill="#ffce56"/><path d="m168.492 249.618c-38.094.004-75.27-19.398-96.242-54.375-31.758-52.965-14.504-121.892 38.457-153.652 8.402-5.039 17.441-8.959 26.867-11.652 1.742-.498 3.602.236 4.527 1.789.934 1.553.703 3.537-.555 4.838-32.652 33.742-38.578 85.459-14.41 125.766 24.172 40.307 72.605 59.434 117.727 46.531 1.758-.5 3.605.238 4.531 1.789.934 1.553.703 3.539-.555 4.84-6.828 7.049-14.543 13.176-22.934 18.207-17.987 10.785-37.827 15.919-57.413 15.919zm-42.523-206.967c-3.824 1.705-7.547 3.643-11.145 5.799-49.184 29.492-65.203 93.498-35.715 142.68 29.496 49.186 93.512 65.195 142.68 35.709 3.598-2.156 7.059-4.529 10.367-7.104-44.027 6.307-88.496-14.301-111.879-53.291-23.382-38.996-20.609-87.906 5.692-123.793z" fill="#4c241d"/></g><g fill="#4c241d"><path d="m170 122.216h-80c-2.211 0-4-1.791-4-4s1.789-4 4-4h80c2.211 0 4 1.791 4 4s-1.789 4-4 4z"/><path d="m218 122.216h-32c-2.211 0-4-1.791-4-4s1.789-4 4-4h32c2.211 0 4 1.791 4 4s-1.789 4-4 4z"/><path d="m246 138.216h-104c-2.211 0-4-1.791-4-4s1.789-4 4-4h104c2.211 0 4 1.791 4 4s-1.789 4-4 4z"/><path d="m126 138.216h-80c-2.211 0-4-1.791-4-4s1.789-4 4-4h80c2.211 0 4 1.791 4 4s-1.789 4-4 4z"/><path d="m90 154.216h-56c-2.211 0-4-1.791-4-4s1.789-4 4-4h56c2.211 0 4 1.791 4 4s-1.789 4-4 4z"/><path d="m178 154.216h-72c-2.211 0-4-1.791-4-4s1.789-4 4-4h72c2.211 0 4 1.791 4 4s-1.789 4-4 4z"/><path d="m206 154.216h-12c-2.211 0-4-1.791-4-4s1.789-4 4-4h12c2.211 0 4 1.791 4 4s-1.789 4-4 4z"/><path d="m266 154.216h-44c-2.211 0-4-1.791-4-4s1.789-4 4-4h44c2.211 0 4 1.791 4 4s-1.789 4-4 4z"/><path d="m158 170.216h-108c-2.211 0-4-1.791-4-4s1.789-4 4-4h108c2.211 0 4 1.791 4 4s-1.789 4-4 4z"/><path d="m238 170.216h-64c-2.211 0-4-1.791-4-4s1.789-4 4-4h64c2.211 0 4 1.791 4 4s-1.789 4-4 4z"/><path d="m194 186.216h-96c-2.211 0-4-1.791-4-4s1.789-4 4-4h96c2.211 0 4 1.791 4 4s-1.789 4-4 4z"/><path d="m226 186.216h-16c-2.211 0-4-1.791-4-4s1.789-4 4-4h16c2.211 0 4 1.791 4 4s-1.789 4-4 4z"/><path d="m242 106.216h-80c-2.211 0-4-1.791-4-4s1.789-4 4-4h80c2.211 0 4 1.791 4 4s-1.789 4-4 4z"/><path d="m262 122.216h-28c-2.211 0-4-1.791-4-4s1.789-4 4-4h28c2.211 0 4 1.791 4 4s-1.789 4-4 4z"/><path d="m130 202.216h-84c-2.211 0-4-1.791-4-4s1.789-4 4-4h84c2.211 0 4 1.791 4 4s-1.789 4-4 4z"/><path d="m110 218.216h-76c-2.211 0-4-1.791-4-4s1.789-4 4-4h76c2.211 0 4 1.791 4 4s-1.789 4-4 4z"/></g></g></svg>