<?xml version="1.0" encoding="utf-8"?>
<!-- Generator: Adobe Illustrator 24.1.0, SVG Export Plug-In . SVG Version: 6.00 Build 0)  -->
<svg version="1.1" id="Capa_1" xmlns="http://www.w3.org/2000/svg" xmlns:xlink="http://www.w3.org/1999/xlink" x="0px" y="0px"
	 viewBox="0 0 512 512" style="enable-background:new 0 0 512 512;" xml:space="preserve">
<style type="text/css">
	.st0{display:none;fill:#C7BEC6;}
	.st1{display:none;fill:#BAAFB9;}
	.st2{display:none;fill:#F7F2F0;}
	.st3{display:none;fill:#F1E9E6;}
	.st4{fill:#FFFFFF;}
	.st5{display:none;fill:#E3817F;}
</style>
<circle class="st0" cx="256" cy="256" r="256"/>
<path class="st1" d="M87.7,256c0-126.4,91.7-231.5,212.2-252.3C285.6,1.3,270.9,0,256,0C114.6,0,0,114.6,0,256s114.6,256,256,256
	c14.9,0,29.6-1.3,43.9-3.7C179.4,487.5,87.7,382.4,87.7,256L87.7,256z"/>
<path class="st2" d="M256,478.9c-59.5,0-115.5-23.2-157.6-65.3C56.3,371.5,33.1,315.5,33.1,256S56.3,140.5,98.4,98.4
	c42.1-42.1,98.1-65.3,157.6-65.3s115.5,23.2,157.6,65.3c42.1,42.1,65.3,98.1,65.3,157.6s-23.2,115.5-65.3,157.6
	C371.5,455.7,315.5,478.9,256,478.9z"/>
<path class="st3" d="M209.5,37.9c-41.8,8.8-80.2,29.5-111.1,60.5C56.3,140.5,33.1,196.5,33.1,256s23.2,115.5,65.3,157.6
	c30.9,30.9,69.3,51.6,111.1,60.5C136.4,429,87.7,348.2,87.7,256S136.4,83,209.5,37.9L209.5,37.9z"/>
<path class="st4" d="M468.3,187.9c-4.4,0-8.5-2.7-10.2-7c-10.5-28.1-26.7-53.2-48.2-74.6c-21.6-21.4-46.8-37.6-75-48
	c-5.6-2.1-8.5-8.3-6.4-13.8c2.1-5.6,8.3-8.4,13.9-6.4c31.2,11.5,59,29.3,82.8,52.9c23.8,23.6,41.7,51.3,53.2,82.3
	c2.1,5.6-0.8,11.8-6.4,13.8C470.8,187.7,469.5,187.9,468.3,187.9L468.3,187.9z"/>
<path class="st4" d="M55.9,187.9c-1.2,0-2.5-0.2-3.8-0.7c-5.6-2.1-8.5-8.3-6.4-13.8c11.6-31,29.5-58.7,53.2-82.3
	s51.6-41.5,82.8-52.9c5.6-2.1,11.8,0.8,13.9,6.4c2.1,5.6-0.8,11.8-6.4,13.8c-28.2,10.4-53.5,26.5-75,48
	c-21.6,21.4-37.8,46.5-48.2,74.6C64.4,185.3,60.3,187.9,55.9,187.9L55.9,187.9z"/>
<path class="st4" d="M338.6,469.1c-4.4,0-8.5-2.7-10.2-7c-2.1-5.6,0.8-11.8,6.4-13.8c28.2-10.4,53.5-26.5,75-48
	c21.6-21.4,37.8-46.5,48.2-74.6c2.1-5.6,8.3-8.4,13.9-6.4c5.6,2.1,8.5,8.3,6.4,13.8c-11.6,31-29.5,58.7-53.2,82.3
	s-51.6,41.5-82.8,52.9C341.2,468.9,339.9,469.1,338.6,469.1L338.6,469.1z"/>
<path class="st4" d="M185.6,469.1c-1.2,0-2.5-0.2-3.8-0.7c-31.2-11.5-59-29.3-82.8-52.9s-41.7-51.3-53.2-82.3
	c-2.1-5.6,0.8-11.8,6.4-13.8c5.6-2.1,11.8,0.8,13.9,6.4c10.5,28.1,26.7,53.2,48.2,74.6c21.6,21.4,46.8,37.6,75,48
	c5.6,2.1,8.5,8.3,6.4,13.8C194.1,466.4,190,469.1,185.6,469.1L185.6,469.1z"/>
<path id="N" class="st4" d="M288.1,0c-6,0-10.8,4.8-10.8,10.8v32.5L245,4c-2.9-3.5-7.7-4.9-12-3.3c-4.3,1.5-7.2,5.6-7.2,10.1v64.6
	c0,5.9,4.8,10.8,10.8,10.8c6,0,10.8-4.8,10.8-10.8V41l32.3,39.3c2.9,3.5,7.7,4.9,12,3.3c4.3-1.5,7.2-5.6,7.2-10.1V10.8
	C298.9,4.8,294.1,0,288.1,0z"/>
<path id="E" class="st4" d="M501.2,278.4h-29.9V264h16.7c6,0,10.8-4.8,10.8-10.8s-4.8-10.8-10.8-10.8h-16.7v-14.3h29.9
	c6,0,10.8-4.8,10.8-10.8c0-5.9-4.8-10.8-10.8-10.8h-36.7c-8.2,0-14.9,6.6-14.9,14.8v63.7c0,8.1,6.7,14.8,14.9,14.8h36.7
	c6,0,10.8-4.8,10.8-10.8C512,283.2,507.2,278.4,501.2,278.4z"/>
<path id="W" class="st4" d="M76.5,217.7c-5.8-1.3-11.6,2.3-13,8.1l-8.1,34.9L51,255c-2-2.7-5.2-4.2-8.6-4.2s-6.5,1.6-8.6,4.2
	l-4.4,5.7l-8.1-34.9c-1.3-5.8-7.2-9.4-13-8.1c-5.8,1.3-9.5,7.1-8.1,12.9l13.2,57.2c0.9,4.1,4.2,7.2,8.2,8.1c4.1,0.9,8.3-0.7,10.9-4
	l9.8-12.7l9.8,12.7c2.1,2.7,5.3,4.2,8.6,4.2c0.8,0,1.5-0.1,2.3-0.2c4.1-0.9,7.3-4,8.2-8.1l13.2-57.2C85.9,224.8,82.3,219,76.5,217.7
	L76.5,217.7z"/>
<path id="S" class="st4" d="M255.7,436.5H286c6,0,10.8-4.8,10.8-10.8S292,415,286,415h-30.3c-13.4,0-24.3,10.9-24.3,24.2v9.7
	c0,13.4,10.9,24.2,24.3,24.2h16.7c1.5,0,2.7,1.2,2.7,2.7v12c0,1.5-1.2,2.7-2.7,2.7h-30.3c-6,0-10.8,4.8-10.8,10.8
	c0,5.9,4.8,10.8,10.8,10.8h30.3c13.4,0,24.3-10.9,24.3-24.2v-12c0-13.4-10.9-24.2-24.3-24.2h-16.7c-1.5,0-2.7-1.2-2.7-2.7v-9.7
	C253,437.7,254.2,436.5,255.7,436.5L255.7,436.5z"/>
<path class="st5" d="M321,307.1l-59.4-130.9c-2.4-5.2-9.8-5.2-12.1,0l-58.3,131c-2.4,5.4,2.9,11,8.4,8.9l54.2-20.6
	c1.5-0.6,3.2-0.6,4.7,0l54.1,20.6C318.1,318.2,323.4,312.5,321,307.1L321,307.1z"/>
</svg>
