<?xml version="1.0" encoding="utf-8"?>
<!-- Generator: Adobe Illustrator 24.1.0, SVG Export Plug-In . SVG Version: 6.00 Build 0)  -->
<svg version="1.1" id="Capa_1" xmlns="http://www.w3.org/2000/svg" xmlns:xlink="http://www.w3.org/1999/xlink" x="0px" y="0px"
	 viewBox="0 0 512 512" style="enable-background:new 0 0 512 512;" xml:space="preserve">
<style type="text/css">
	.st0{display:none;fill:#C7BEC6;}
	.st1{display:none;fill:#BAAFB9;}
	.st2{display:none;fill:#F7F2F0;}
	.st3{display:none;fill:#F1E9E6;}
	.st4{fill:#FFFFFF;}
	.st5{display:none;fill:#E3817F;}
</style>
<circle class="st0" cx="256" cy="256" r="256"/>
<path class="st1" d="M87.7,256c0-126.4,91.7-231.5,212.2-252.3C285.6,1.3,270.9,0,256,0C114.6,0,0,114.6,0,256s114.6,256,256,256
	c14.9,0,29.6-1.3,43.9-3.7C179.4,487.5,87.7,382.4,87.7,256L87.7,256z"/>
<path class="st2" d="M256,478.9c-59.5,0-115.5-23.2-157.6-65.3C56.3,371.5,33.1,315.5,33.1,256S56.3,140.5,98.4,98.4
	c42.1-42.1,98.1-65.3,157.6-65.3s115.5,23.2,157.6,65.3c42.1,42.1,65.3,98.1,65.3,157.6s-23.2,115.5-65.3,157.6
	C371.5,455.7,315.5,478.9,256,478.9z"/>
<path class="st3" d="M209.5,37.9c-41.8,8.8-80.2,29.5-111.1,60.5C56.3,140.5,33.1,196.5,33.1,256s23.2,115.5,65.3,157.6
	c30.9,30.9,69.3,51.6,111.1,60.5C136.4,429,87.7,348.2,87.7,256S136.4,83,209.5,37.9L209.5,37.9z"/>
<path class="st4" d="M446.8,141.4c-2.4,0-4.6-1.5-5.5-3.9c-5.6-15.4-14.4-29.2-26-41c-11.6-11.8-25.2-20.6-40.4-26.3
	c-3-1.1-4.6-4.5-3.4-7.6c1.1-3.1,4.5-4.6,7.5-3.5c16.8,6.3,31.8,16.1,44.6,29.1s22.5,28.2,28.7,45.2c1.1,3.1-0.4,6.5-3.4,7.6
	C448.1,141.3,447.5,141.4,446.8,141.4L446.8,141.4z"/>
<path class="st4" d="M72.3,141.4c-0.7,0-1.4-0.1-2-0.4c-3-1.1-4.6-4.5-3.4-7.6c6.2-17,15.9-32.2,28.7-45.2s27.8-22.8,44.6-29.1
	c3-1.1,6.4,0.4,7.5,3.5c1.1,3.1-0.4,6.5-3.4,7.6C129,76,115.4,84.9,103.8,96.6c-11.6,11.8-20.4,25.5-26,41
	C76.9,140,74.7,141.4,72.3,141.4L72.3,141.4z"/>
<path class="st4" d="M376.9,450.2c-2.4,0-4.6-1.5-5.5-3.9c-1.1-3.1,0.4-6.5,3.4-7.6c15.2-5.7,28.8-14.6,40.4-26.3
	c11.6-11.8,20.4-25.5,26-41c1.1-3.1,4.5-4.6,7.5-3.5c3,1.1,4.6,4.5,3.4,7.6c-6.2,17-15.9,32.2-28.7,45.2s-27.8,22.8-44.6,29.1
	C378.3,450.1,377.6,450.2,376.9,450.2L376.9,450.2z"/>
<path class="st4" d="M142.2,450.2c-0.7,0-1.4-0.1-2-0.4c-16.8-6.3-31.8-16.1-44.6-29.1s-22.5-28.2-28.7-45.2
	c-1.1-3.1,0.4-6.5,3.4-7.6c3-1.1,6.4,0.4,7.5,3.5c5.6,15.4,14.4,29.2,26,41c11.6,11.8,25.2,20.6,40.4,26.3c3,1.1,4.6,4.5,3.4,7.6
	C146.8,448.7,144.5,450.2,142.2,450.2L142.2,450.2z"/>
<path id="N" class="st4" d="M273.7,0c-3.2,0-5.8,2.6-5.8,5.9v17.8L250.4,2.2c-1.6-1.9-4.2-2.7-6.5-1.8c-2.3,0.8-3.9,3.1-3.9,5.6
	v35.5c0,3.3,2.6,5.9,5.8,5.9s5.8-2.6,5.8-5.9V22.5l17.4,21.6c1.6,1.9,4.2,2.7,6.5,1.8c2.3-0.8,3.9-3.1,3.9-5.6V5.9
	C279.5,2.6,276.9,0,273.7,0z"/>
<path id="E" class="st4" d="M506.2,268.3H490v-7.9h9c3.2,0,5.8-2.6,5.8-5.9c0-3.3-2.6-5.9-5.8-5.9h-9v-7.9h16.1
	c3.2,0,5.8-2.6,5.8-5.9c0-3.3-2.6-5.9-5.8-5.9h-19.8c-4.4,0-8,3.6-8,8.1v35c0,4.5,3.6,8.1,8,8.1h19.8c3.2,0,5.8-2.6,5.8-5.9
	C512,270.9,509.4,268.3,506.2,268.3z"/>
<path id="W" class="st4" d="M41.2,236.9c-3.1-0.7-6.3,1.3-7,4.4l-4.4,19.2l-2.4-3.1c-1.1-1.5-2.8-2.3-4.6-2.3s-3.5,0.9-4.6,2.3
	l-2.4,3.1l-4.4-19.2c-0.7-3.2-3.9-5.2-7-4.4c-3.1,0.7-5.1,3.9-4.4,7.1l7.1,31.4c0.5,2.2,2.2,4,4.4,4.5c2.2,0.5,4.5-0.4,5.9-2.2
	l5.3-7l5.3,7c1.1,1.5,2.8,2.3,4.6,2.3c0.4,0,0.8,0,1.2-0.1c2.2-0.5,3.9-2.2,4.4-4.5l7.1-31.4C46.3,240.8,44.3,237.6,41.2,236.9
	L41.2,236.9z"/>
<path id="S" class="st4" d="M257.2,470.6h16.3c3.2,0,5.8-2.6,5.8-5.9s-2.6-5.9-5.8-5.9h-16.3c-7.2,0-13.1,6-13.1,13.3v5.3
	c0,7.3,5.9,13.3,13.1,13.3h9c0.8,0,1.5,0.7,1.5,1.5v6.6c0,0.8-0.7,1.5-1.5,1.5h-16.3c-3.2,0-5.8,2.6-5.8,5.9s2.6,5.9,5.8,5.9h16.3
	c7.2,0,13.1-6,13.1-13.3v-6.6c0-7.3-5.9-13.3-13.1-13.3h-9c-0.8,0-1.5-0.7-1.5-1.5V472C255.7,471.2,256.4,470.6,257.2,470.6
	L257.2,470.6z"/>
<path class="st5" d="M321,307.1l-59.4-130.9c-2.4-5.2-9.8-5.2-12.1,0l-58.3,131c-2.4,5.4,2.9,11,8.4,8.9l54.2-20.6
	c1.5-0.6,3.2-0.6,4.7,0l54.1,20.6C318.1,318.2,323.4,312.5,321,307.1L321,307.1z"/>
</svg>
