<?xml version="1.0" encoding="utf-8"?>
<!-- Generator: Adobe Illustrator 24.1.0, SVG Export Plug-In . SVG Version: 6.00 Build 0)  -->
<svg version="1.1" xmlns="http://www.w3.org/2000/svg" xmlns:xlink="http://www.w3.org/1999/xlink" x="0px" y="0px"
	 viewBox="0 0 512 512" style="enable-background:new 0 0 512 512;" xml:space="preserve">
<style type="text/css">
	.st0{display:none;fill:#ECEAEC;}
	.st1{fill:#A4CCFF;}
	.st2{fill:#8BB3EA;}
	.st3{display:none;}
</style>
<g id="Capa_1">
	<path class="st0" d="M256,71.6C154.2,71.6,71.6,154.2,71.6,256S154.2,440.4,256,440.4S440.4,357.8,440.4,256S357.8,71.6,256,71.6z
		 M263,234c-6.4,0-6.4-10,0-10C269.4,224,269.4,234,263,234z"/>
	<path class="st1" d="M256,135.8l60.3,26.8c4.1,1.8,8.4-2.4,6.5-6.5L260.5,17.5c-1.7-3.9-7.3-3.9-9,0L189.2,156
		c-1.9,4.1,2.4,8.4,6.5,6.5L256,135.8z"/>
	<path class="st2" d="M256,14.6c-1.8,0-3.6,1-4.5,2.9L189.2,156c-1.9,4.1,2.4,8.4,6.5,6.5l60.3-26.8V14.6z"/>
	<path class="st3" d="M178.5,173.1c2.2,2.2,5.5,2.8,8.4,1.6L256,144l69.1,30.7c1,0.4,2,0.6,3,0.6c2,0,3.9-0.8,5.3-2.2
		c2.2-2.2,2.8-5.5,1.5-8.4L262.8,4.4C261.6,1.7,259,0,256,0s-5.6,1.7-6.8,4.4L177,164.7C175.7,167.6,176.3,170.9,178.5,173.1z
		 M264,130.9V42.4L313.7,153L264,130.9z M249,42.4v88.4L199.3,153L249,42.4z"/>
	<path class="st3" d="M312.6,54.8c79.1,22.2,138,89,150.1,170.2c0.6,3.7,3.8,6.4,7.4,6.4c0.4,0,0.7,0,1.1-0.1
		c4.1-0.6,6.9-4.4,6.3-8.5c-12.9-87-76.1-158.7-160.9-182.5c-4-1.1-8.1,1.2-9.2,5.2C306.3,49.6,308.6,53.7,312.6,54.8z"/>
	<path class="st3" d="M55.6,264c4.5,0,8-3.9,7.4-8.4c-0.5-3.8-3.9-6.6-7.7-6.6h-8.1c3.3-91.3,65.9-170.5,154.5-194.3
		c3.1-0.8,5.6-3.5,5.7-6.8c0.2-5.4-4.7-9-9.4-7.7C102.7,65.7,35.5,150.9,32.2,249H7.8c-3.8,0-7.3,2.8-7.7,6.6
		c-0.6,4.6,3,8.4,7.4,8.4H55.6z"/>
	<path class="st3" d="M505,249h-47.8c-3.8,0-7.3,2.8-7.7,6.6c-0.6,4.6,3,8.4,7.4,8.4h8.4c-3.9,109.3-92,197.4-201.3,201.3v-8.1
		c0-3.8-2.8-7.3-6.6-7.7c-4.6-0.6-8.4,3-8.4,7.4v8.4c-47.7-1.7-93.5-19.7-129.5-51.1c-37.6-32.7-62.3-77.7-69.6-126.8
		c-0.6-4.1-4.4-6.9-8.5-6.3c-4.1,0.6-6.9,4.4-6.3,8.5c7.8,52.6,34.3,100.8,74.6,135.9c38.8,33.8,88.1,53,139.4,54.8v24.4
		c0,3.8,2.8,7.3,6.6,7.7c4.6,0.6,8.4-3,8.4-7.4v-24.7c57-1.9,110.3-24.9,150.8-65.5c40.5-40.5,63.6-93.8,65.5-150.8h24.4
		c3.8,0,7.3-2.8,7.7-6.6C513,252.9,509.5,249,505,249z"/>
</g>
<g id="Layer_2">
</g>
</svg>
